<?xml version="1.0" encoding="UTF-8" standalone="no"?>
<!-- Created with Inkscape (http://www.inkscape.org/) -->
<svg
   xmlns:dc="http://purl.org/dc/elements/1.1/"
   xmlns:cc="http://creativecommons.org/ns#"
   xmlns:rdf="http://www.w3.org/1999/02/22-rdf-syntax-ns#"
   xmlns:svg="http://www.w3.org/2000/svg"
   xmlns="http://www.w3.org/2000/svg"
   xmlns:sodipodi="http://sodipodi.sourceforge.net/DTD/sodipodi-0.dtd"
   xmlns:inkscape="http://www.inkscape.org/namespaces/inkscape"
   width="686.32373"
   height="39.135361"
   id="svg2"
   sodipodi:version="0.32"
   inkscape:version="0.46"
   sodipodi:docname="Histoire socialiste-Jean Jaures-Illustration-Fin-Tome I.svg"
   inkscape:output_extension="org.inkscape.output.svg.inkscape"
   version="1.0">
  <defs
     id="defs4">
    <inkscape:perspective
       sodipodi:type="inkscape:persp3d"
       inkscape:vp_x="0 : 526.18109 : 1"
       inkscape:vp_y="0 : 1000 : 0"
       inkscape:vp_z="744.09448 : 526.18109 : 1"
       inkscape:persp3d-origin="372.04724 : 350.78739 : 1"
       id="perspective10" />
    <inkscape:perspective
       id="perspective2390"
       inkscape:persp3d-origin="372.04724 : 350.78739 : 1"
       inkscape:vp_z="744.09448 : 526.18109 : 1"
       inkscape:vp_y="0 : 1000 : 0"
       inkscape:vp_x="0 : 526.18109 : 1"
       sodipodi:type="inkscape:persp3d" />
  </defs>
  <sodipodi:namedview
     id="base"
     pagecolor="#ffffff"
     bordercolor="#666666"
     borderopacity="1.0"
     inkscape:pageopacity="0.0"
     inkscape:pageshadow="2"
     inkscape:zoom="0.49497475"
     inkscape:cx="212.14286"
     inkscape:cy="527.56022"
     inkscape:document-units="px"
     inkscape:current-layer="layer1"
     showgrid="false"
     inkscape:window-width="1600"
     inkscape:window-height="874"
     inkscape:window-x="-4"
     inkscape:window-y="-4" />
  <metadata
     id="metadata7">
    <rdf:RDF>
      <cc:Work
         rdf:about="">
        <dc:format>image/svg+xml</dc:format>
        <dc:type
           rdf:resource="http://purl.org/dc/dcmitype/StillImage" />
      </cc:Work>
    </rdf:RDF>
  </metadata>
  <g
     inkscape:label="Calque 1"
     inkscape:groupmode="layer"
     id="layer1"
     transform="translate(-25.359661,-20.427238)">
    <g
       id="g3310">
      <path
         sodipodi:nodetypes="csssssss"
         id="path2398"
         d="M 27.922161,35.596343 C 27.922161,35.596343 44.545094,28.613176 55.386119,31.522828 C 66.227169,34.432482 69.840853,43.743372 85.74107,45.1982 C 101.64124,46.653023 115.52563,29.456636 129.98034,30.329532 C 144.43507,31.202428 151.23215,44.41566 159.76497,45.489163 C 171.32874,46.94399 192.74404,28.788553 204.44186,29.698542 C 216.95776,30.672166 228.97615,44.057846 240.40646,46.071094 C 251.97023,48.107852 273.65233,43.452407 277.26601,38.796962"
         style="fill:none;fill-rule:evenodd;stroke:#000000;stroke-width:5.125;stroke-linecap:round;stroke-linejoin:miter;stroke-miterlimit:4;stroke-dasharray:none;stroke-opacity:1" />
      <path
         sodipodi:nodetypes="csssssss"
         id="path3170"
         d="M 459.87703,37.135773 C 459.87703,37.135773 476.49997,30.152607 487.34099,33.062259 C 498.18204,35.971913 501.79573,45.282802 517.69594,46.73763 C 533.59611,48.192454 547.4805,30.996067 561.93521,31.868962 C 576.38994,32.741859 583.18702,45.95509 591.71985,47.028594 C 603.28361,48.483421 624.69891,30.327984 636.39674,31.237973 C 648.91264,32.211597 660.93103,45.597276 672.36134,47.610525 C 683.92511,49.647283 705.60721,44.991837 709.22089,40.336392"
         style="fill:none;fill-rule:evenodd;stroke:#000000;stroke-width:4.92500019;stroke-linecap:round;stroke-linejoin:miter;stroke-miterlimit:4;stroke-dasharray:none;stroke-opacity:1" />
      <path
         sodipodi:nodetypes="ccssscssss"
         id="path3172"
         d="M 277.25218,38.19643 L 288.8483,38.19643 C 288.8483,38.19643 292.47207,33.242286 299.71963,32.950865 C 301.67708,32.872157 296.20398,29.108402 300.65344,29.417303 C 304.53449,29.686743 294.44499,32.612302 299.65281,32.623682 C 305.08857,32.635561 335.95746,39.944953 335.95746,39.944953 C 335.95746,39.944953 316.99505,43.938784 301.40803,46.6484 C 297.19653,47.380519 304.13306,49.639407 301.35002,49.963198 C 297.99303,50.353765 301.07855,46.611191 299.71963,46.064779 C 293.92158,43.733417 289.57304,44.607678 288.8483,38.779271"
         style="fill:none;fill-rule:evenodd;stroke:#000000;stroke-width:6.46621418;stroke-linecap:round;stroke-linejoin:miter;stroke-miterlimit:4;stroke-dasharray:none;stroke-opacity:1" />
      <path
         sodipodi:nodetypes="ccssscssss"
         id="path3174"
         d="M 458.70392,37.865919 L 446.8609,37.865919 C 446.8609,37.865919 443.15997,32.921267 435.75809,32.630404 C 433.75897,32.551846 439.3486,28.795302 434.8044,29.103612 C 430.84072,29.372535 441.14504,32.292489 435.82634,32.303847 C 430.27484,32.315703 398.74869,39.611092 398.74869,39.611092 C 398.74869,39.611092 418.11485,43.597271 434.03375,46.301695 C 438.33492,47.032412 431.2507,49.286972 434.093,49.610144 C 437.52146,49.999962 434.37024,46.264558 435.75809,45.719193 C 441.6796,43.392297 446.12072,44.264884 446.8609,38.447644"
         style="fill:none;fill-rule:evenodd;stroke:#000000;stroke-width:6.52842808;stroke-linecap:round;stroke-linejoin:miter;stroke-miterlimit:4;stroke-dasharray:none;stroke-opacity:1" />
      <path
         sodipodi:nodetypes="ccccccccc"
         id="path3176"
         d="M 367.54705,35.502784 C 359.62928,34.578256 353.97758,18.708208 343.73336,26.686046 C 333.73344,32.096344 352.22039,35.763075 359.32445,40.126508 C 348.75702,44.578687 334.88704,49.030864 343.41636,53.483045 C 350.55436,55.442899 355.68531,56.752993 367.96093,45.416551 C 387.25197,60.665068 387.82061,54.445097 393.54803,53.415308 C 396.68548,49.164946 388.38712,44.900197 375.35055,39.915197 C 388.91819,35.288772 400.80655,30.662347 393.12887,26.035922 C 379.16677,20.196171 371.95839,34.752649 367.54705,35.502784 z"
         style="fill:none;fill-rule:evenodd;stroke:#000000;stroke-width:8.04699993;stroke-linecap:butt;stroke-linejoin:miter;stroke-miterlimit:4;stroke-dasharray:none;stroke-opacity:1" />
    </g>
  </g>
</svg>
